<?xml version="1.0" standalone="no"?>
<!DOCTYPE svg PUBLIC "-//W3C//DTD SVG 20010904//EN"
 "http://www.w3.org/TR/2001/REC-SVG-20010904/DTD/svg10.dtd">
<svg version="1.0" xmlns="http://www.w3.org/2000/svg"
 width="1280.000000pt" height="1280.000000pt" viewBox="0 0 1280.000000 1280.000000"
 preserveAspectRatio="xMidYMid meet">
<metadata>
Created by potrace 1.14, written by Peter Selinger 2001-2017
</metadata>
<g transform="translate(0.000000,1280.000000) scale(0.100000,-0.100000)"
fill="#000000" stroke="none">
<path d="M5203 8444 c16 -20 14 -34 -5 -34 -5 0 -6 6 -2 13 5 8 2 8 -9 -2 -9
-7 -17 -10 -17 -5 0 5 -8 0 -16 -11 -15 -19 -15 -19 -12 -1 2 10 -3 21 -11 24
-8 3 -11 0 -7 -7 4 -6 3 -11 -2 -11 -5 0 -13 10 -19 22 -8 19 -10 20 -16 4 -4
-10 -3 -15 3 -11 6 3 10 1 10 -5 0 -7 -17 -9 -50 -6 -38 4 -49 2 -43 -7 4 -7
0 -7 -10 2 -19 15 -23 26 -5 15 7 -4 8 -3 4 5 -6 9 -11 9 -22 0 -17 -14 -19
-23 -2 -13 7 5 8 3 3 -5 -9 -15 -21 -4 -28 24 -4 18 -5 18 -6 -2 0 -12 -5 -25
-11 -28 -6 -4 -7 1 -3 12 6 16 5 17 -12 3 -17 -14 -18 -13 -12 3 6 16 4 16
-23 -3 -27 -19 -29 -19 -23 -3 7 17 6 17 -20 0 -18 -12 -25 -13 -21 -4 3 8 -2
14 -11 14 -10 0 -14 -6 -10 -15 4 -12 3 -13 -10 -2 -8 7 -15 9 -15 6 0 -4 -9
-2 -20 4 -14 7 -20 7 -20 0 0 -5 -5 -10 -11 -10 -5 0 -8 4 -4 9 3 5 1 12 -4
15 -5 4 -12 2 -16 -4 -4 -6 -10 -8 -15 -5 -5 3 -11 1 -14 -4 -3 -5 -16 -7 -28
-3 -16 4 -19 2 -13 -9 7 -12 6 -12 -7 -1 -8 7 -24 9 -33 5 -13 -4 -16 -3 -11
5 5 8 2 10 -8 6 -9 -3 -13 -11 -9 -18 3 -6 0 -5 -8 2 -12 11 -11 15 5 28 11 8
15 14 9 14 -6 0 -16 -7 -23 -15 -7 -8 -16 -12 -21 -9 -5 3 -9 1 -9 -3 0 -5 -9
-9 -20 -10 -11 -1 -20 4 -20 12 0 8 -4 16 -9 19 -5 4 -7 -2 -4 -13 3 -10 0
-22 -6 -25 -7 -5 -8 -1 -4 11 6 16 5 17 -12 3 -17 -14 -18 -13 -12 2 3 10 2
20 -4 23 -5 4 -8 1 -7 -7 2 -7 -3 -12 -11 -10 -11 2 -12 0 -3 -10 8 -11 7 -14
-7 -14 -12 0 -17 5 -13 15 3 9 1 12 -5 8 -6 -4 -13 -4 -16 0 -2 5 -2 3 -1 -4
2 -6 -3 -14 -10 -16 -8 -3 -13 1 -12 11 1 18 -22 23 -41 9 -7 -5 -13 -6 -13
-2 0 4 -8 1 -17 -6 -10 -8 -14 -9 -10 -2 4 6 2 15 -4 19 -7 4 -9 3 -5 -4 3 -6
2 -13 -4 -17 -6 -4 -7 -11 -4 -17 4 -7 2 -8 -4 -4 -6 4 -8 14 -5 24 6 15 5 16
-12 2 -10 -8 -20 -14 -22 -12 -1 1 -4 2 -5 1 -2 0 -15 -2 -29 -3 -19 -1 -25 2
-21 12 4 12 1 12 -16 3 -24 -13 -35 -14 -28 -3 2 4 -4 8 -14 8 -10 0 -17 -4
-14 -8 2 -4 -5 -6 -16 -5 -11 1 -20 6 -21 12 0 5 -4 1 -9 -10 -7 -17 -9 -17
-9 -2 -1 9 -6 17 -12 17 -5 0 -7 -6 -3 -12 4 -7 4 -10 -1 -6 -4 4 -15 2 -23
-5 -9 -6 -13 -7 -10 -2 4 6 -3 17 -15 25 -20 12 -21 12 -8 -4 13 -16 13 -17
-5 -14 -10 1 -24 9 -30 17 -9 11 -12 12 -19 1 -5 -9 -4 -11 3 -6 7 4 12 3 12
-2 0 -5 -11 -12 -25 -14 -19 -4 -23 -2 -15 7 8 9 6 14 -5 19 -9 3 -13 2 -10
-3 3 -5 1 -12 -5 -16 -5 -3 -10 0 -10 7 0 9 -3 9 -8 2 -4 -6 -17 -13 -30 -17
-17 -4 -21 -2 -13 7 7 8 4 16 -12 26 -20 12 -21 12 -8 -3 7 -10 10 -18 5 -18
-39 -6 -54 -5 -54 3 0 5 -5 6 -10 3 -6 -4 -7 -11 -4 -17 4 -7 2 -8 -5 -4 -6 4
-9 11 -6 16 3 5 1 11 -4 14 -5 4 -13 1 -17 -5 -4 -8 -3 -9 4 -5 8 5 10 1 5
-10 -5 -15 -7 -15 -15 0 -5 9 -14 16 -21 16 -8 0 -8 -3 1 -9 11 -7 10 -9 -3
-14 -9 -4 -13 -3 -10 3 3 5 -5 14 -17 21 -20 11 -22 11 -10 -3 10 -13 10 -18
1 -24 -8 -4 -9 -3 -5 5 5 8 -1 10 -24 6 -18 -3 -29 -2 -26 4 3 5 0 11 -8 14
-11 4 -13 -1 -10 -19 2 -13 0 -24 -6 -24 -5 0 -9 3 -9 8 5 28 -2 35 -16 16
-11 -14 -14 -15 -9 -3 6 19 -11 35 -21 19 -4 -6 -11 -7 -17 -4 -7 4 -8 2 -4
-4 4 -7 2 -12 -3 -12 -6 0 -11 5 -11 11 0 5 -4 8 -10 4 -5 -3 -6 -13 -3 -23 7
-18 5 -17 -17 12 -12 16 -12 18 -1 11 10 -6 12 -4 6 4 -5 9 -10 10 -18 2 -7
-7 -15 -7 -26 2 -12 9 -13 9 -7 0 6 -11 -7 -19 -17 -10 -2 1 -16 -7 -32 -17
-27 -17 -28 -17 -15 -2 16 21 23 49 9 40 -5 -3 -7 -10 -4 -15 4 -5 0 -9 -7 -9
-8 0 -14 -10 -14 -24 0 -20 3 -23 17 -15 13 6 21 2 34 -17 9 -15 13 -24 8 -21
-5 4 -10 0 -10 -8 0 -11 5 -12 21 -3 20 11 20 11 1 -18 -14 -22 -14 -26 -3
-16 11 9 18 10 23 2 3 -5 11 -10 18 -10 6 0 3 6 -8 13 -15 12 -16 15 -4 22 8
5 11 5 7 0 -5 -5 1 -15 12 -22 11 -8 18 -19 15 -24 -4 -5 1 -9 9 -9 9 0 16 -7
16 -16 0 -10 6 -14 14 -11 10 4 13 1 10 -8 -3 -8 -1 -22 5 -32 6 -10 11 -12
11 -5 0 6 7 12 16 12 13 0 14 -3 4 -15 -10 -12 -8 -13 10 -10 18 4 20 2 9 -11
-6 -8 -9 -17 -5 -21 3 -3 6 -1 6 5 0 7 5 12 11 12 5 0 8 -4 5 -9 -3 -4 3 -16
14 -26 11 -10 18 -21 15 -25 -2 -4 2 -7 10 -7 13 0 13 3 -1 18 -12 13 -12 19
-3 25 7 4 10 3 5 -4 -6 -10 10 -26 26 -27 3 0 10 -4 15 -9 4 -5 3 -6 -3 -3
-15 9 -27 -20 -12 -29 7 -4 8 -3 4 4 -10 17 1 15 24 -5 11 -10 20 -24 20 -33
0 -13 2 -13 11 0 9 12 10 11 6 -6 -3 -13 1 -21 9 -21 7 0 11 3 9 7 -2 4 2 7
10 7 11 0 12 -5 3 -20 -5 -11 -6 -17 -1 -14 5 3 17 -2 25 -12 12 -15 13 -22 5
-32 -7 -8 -1 -5 12 6 l24 20 -8 -25 c-7 -23 -6 -24 9 -11 15 12 17 12 14 0 -2
-8 3 -13 10 -12 6 2 12 -4 12 -13 0 -9 -5 -12 -12 -8 -7 4 -8 3 -4 -5 4 -6 13
-8 19 -4 18 11 38 12 31 2 -3 -5 -9 -7 -14 -4 -4 3 -6 -4 -3 -14 3 -11 12 -22
20 -26 13 -4 14 -3 3 10 -21 26 -5 17 30 -17 18 -17 26 -29 17 -25 -9 3 -19 2
-22 -2 -3 -5 9 -8 25 -7 22 2 29 -2 26 -11 -3 -7 1 -13 9 -13 7 0 15 -10 17
-22 2 -13 9 -22 16 -21 6 2 12 -2 12 -7 0 -6 7 -10 16 -10 8 0 12 -5 8 -11 -4
-8 0 -8 15 0 12 7 21 8 20 4 -3 -20 3 -29 20 -29 16 0 18 3 8 15 -10 12 -9 13
11 2 17 -9 22 -9 22 1 0 9 3 9 8 2 10 -15 54 -26 45 -11 -4 6 0 8 10 4 10 -4
17 -1 17 6 0 8 3 9 8 1 9 -13 54 -26 46 -13 -3 5 -1 9 5 9 5 0 12 -6 14 -12 3
-7 6 -4 6 7 1 16 3 17 10 5 6 -8 7 -19 3 -25 -3 -5 2 -4 11 3 9 8 22 10 28 6
8 -5 9 -3 4 6 -6 10 -4 12 8 7 10 -4 17 -1 17 6 0 8 4 6 10 -3 5 -8 10 -11 10
-7 0 4 10 3 21 -4 15 -8 19 -8 15 0 -4 6 -3 11 3 11 5 0 12 -6 14 -12 3 -7 6
-4 6 7 1 17 3 17 11 5 5 -8 10 -11 10 -7 0 4 10 3 21 -4 15 -8 19 -8 15 0 -4
6 -2 11 3 11 6 0 11 -6 12 -12 0 -7 4 -4 9 7 5 11 9 15 9 9 1 -7 12 -14 26
-16 13 -3 22 -1 19 3 -3 5 0 9 5 9 6 0 11 -6 12 -12 0 -7 4 -4 9 7 l9 20 0
-20 c1 -11 5 -16 9 -10 10 14 52 17 52 4 0 -5 -6 -7 -12 -3 -7 4 -4 -2 6 -14
21 -24 31 -29 20 -9 -4 6 -3 9 1 4 14 -12 13 -47 -2 -47 -16 0 -17 -16 -1 -26
7 -5 8 -2 3 7 -5 8 -4 11 0 6 12 -10 14 -47 3 -47 -4 0 -8 -4 -8 -10 0 -5 8
-7 18 -4 11 4 13 3 5 -3 -7 -5 -11 -27 -10 -50 2 -25 -2 -39 -8 -37 -7 3 -11
-12 -11 -38 0 -24 1 -37 3 -30 7 20 18 13 18 -12 0 -20 -3 -22 -14 -13 -12 9
-13 9 -7 -1 4 -7 3 -19 -3 -26 -8 -9 -7 -13 4 -13 8 0 11 5 8 11 -3 6 0 5 7
-1 15 -14 23 -43 12 -42 -19 3 -22 -3 -11 -23 10 -18 9 -20 -6 -15 -11 5 -15
3 -12 -5 2 -7 9 -12 14 -11 5 1 9 -9 9 -23 0 -18 -4 -23 -15 -19 -10 4 -9 0 4
-15 19 -21 29 -50 17 -49 -19 3 -22 -3 -12 -21 9 -17 8 -20 -12 -21 -13 0 -17
-3 -10 -6 6 -2 10 -9 7 -13 -3 -5 0 -12 6 -16 7 -4 9 -3 5 4 -3 6 -3 13 2 16
4 2 8 -6 8 -20 0 -14 -5 -23 -11 -20 -16 6 -14 -26 2 -42 12 -12 11 -16 -4
-29 -16 -13 -16 -14 -1 -9 13 4 16 0 12 -17 -2 -12 -8 -23 -14 -25 -6 -2 -8
-8 -5 -12 3 -5 13 -7 23 -4 13 5 14 4 3 -4 -7 -5 -11 -16 -9 -23 3 -8 -2 -20
-11 -27 -14 -12 -14 -13 2 -8 11 3 16 2 12 -4 -3 -6 -3 -16 2 -22 12 -21 12
-35 -3 -35 -7 0 -10 5 -7 10 3 6 1 7 -5 3 -9 -5 -7 -14 4 -32 9 -13 12 -24 6
-24 -14 0 -23 -43 -11 -51 6 -3 12 -18 13 -33 3 -24 -5 -31 -28 -27 -5 1 -4
-4 2 -12 7 -8 8 -18 4 -22 -4 -5 -1 -5 6 -1 7 4 9 13 5 19 -4 7 0 6 10 -2 17
-13 24 -26 9 -17 -4 2 -12 -7 -19 -20 -6 -13 -7 -24 -2 -24 5 0 9 5 9 10 0 6
5 10 10 10 6 0 9 -5 8 -12 -2 -6 6 -13 17 -15 l20 -3 -20 9 c-11 5 -14 10 -7
10 7 1 10 6 7 11 -4 6 -3 10 2 9 18 -3 36 1 30 8 -4 3 3 11 16 18 12 6 21 18
19 26 -3 11 -1 12 10 1 11 -11 10 -15 -2 -23 -12 -9 -12 -10 3 -5 10 3 21 6
23 6 3 0 2 5 -2 12 -5 8 -2 9 9 5 20 -8 22 4 5 22 -11 11 -9 11 11 1 22 -11
24 -11 18 11 -6 23 -5 23 8 5 13 -17 15 -17 15 -3 0 11 5 14 17 10 10 -4 14
-2 9 5 -8 14 30 36 50 28 11 -4 12 -2 5 12 -8 16 -6 18 20 16 26 -2 28 0 17
14 -12 13 -10 14 9 3 19 -9 22 -9 17 2 -5 13 7 23 29 25 4 1 15 8 24 17 8 9
22 14 29 11 8 -3 13 0 11 7 -1 7 8 12 20 11 12 0 20 3 17 8 -3 4 3 8 13 8 15
0 16 2 3 11 -12 9 -11 10 8 6 15 -4 22 0 22 10 0 8 -5 11 -12 7 -7 -4 -8 -3
-4 5 6 9 11 9 24 -1 13 -11 15 -10 9 4 -4 12 -2 15 8 11 8 -3 12 -10 8 -16 -3
-6 -1 -7 6 -3 6 4 8 12 5 18 -5 8 -1 9 11 4 15 -5 16 -4 5 9 -7 9 -10 18 -6
22 3 3 6 1 6 -5 0 -7 4 -12 10 -12 5 0 9 6 7 13 -1 7 7 11 20 9 12 -2 24 2 28
8 3 6 10 8 15 5 5 -3 7 3 5 13 -2 11 3 19 10 19 7 0 11 -7 9 -16 -3 -9 1 -6 7
7 7 12 16 22 20 22 4 0 6 9 4 20 -2 11 0 20 6 20 5 0 9 5 9 11 0 5 -6 7 -12 4
-7 -4 -4 1 7 10 20 17 20 17 -5 10 -20 -6 -23 -5 -12 6 14 15 16 33 3 25 -5
-4 -7 3 -4 15 5 16 8 18 15 7 7 -9 8 -8 4 6 -4 10 -1 25 6 33 6 8 7 13 2 12
-21 -4 -35 2 -29 11 4 6 10 8 15 5 4 -3 7 3 5 12 -2 10 -4 22 -4 26 -1 5 -6 5
-12 2 -6 -4 -5 2 2 13 7 12 17 18 22 15 5 -3 3 4 -5 16 -7 12 -17 21 -23 21
-7 0 -7 3 0 8 6 4 15 16 22 28 9 16 8 21 -3 21 -7 0 -10 -5 -7 -10 4 -6 1 -7
-6 -2 -9 5 -10 10 -2 18 15 15 14 30 -1 22 -7 -4 -4 1 6 9 20 16 20 16 0 16
-11 0 -15 3 -8 8 6 4 14 16 17 26 6 15 5 17 -6 8 -11 -9 -13 -7 -12 8 1 11 5
23 10 27 4 5 5 1 0 -7 -6 -12 -5 -12 5 -3 7 6 20 9 29 6 9 -4 13 -3 10 1 -4 4
-17 9 -29 11 -25 5 -40 15 -23 15 6 0 10 11 9 25 -2 16 1 22 8 18 6 -4 3 2 -6
13 -14 16 -15 22 -3 44 12 22 11 27 -3 43 -14 16 -14 17 0 12 9 -4 19 -1 23 5
3 6 3 9 -2 8 -9 -3 -13 5 -13 25 0 9 12 13 35 13 19 -1 35 -4 35 -8 0 -10 23
-6 31 6 4 5 13 5 20 0 24 -15 41 -13 35 3 -5 13 -4 14 9 3 8 -7 15 -10 15 -6
0 3 12 1 26 -5 22 -8 25 -7 16 3 -8 10 -5 13 13 13 15 0 20 -4 15 -10 -6 -7
-2 -11 11 -12 16 -2 19 2 14 15 -5 13 -3 14 6 5 6 -6 18 -9 27 -6 11 5 13 3 7
-8 -8 -12 -6 -12 8 0 14 11 17 11 17 0 0 -11 2 -11 10 1 7 11 10 11 10 2 0
-10 3 -10 14 0 8 7 11 18 8 23 -3 6 4 1 16 -9 12 -11 22 -16 22 -13 0 4 12 2
26 -3 14 -6 23 -6 20 -1 -3 5 3 11 15 14 15 4 18 2 10 -7 -7 -8 -4 -12 10 -13
15 -1 19 2 15 14 -5 13 -4 14 9 3 8 -7 15 -9 15 -4 0 5 7 0 15 -10 8 -11 15
-14 15 -7 0 7 4 10 9 6 5 -3 12 -1 16 5 3 5 11 10 16 10 6 0 8 -4 5 -9 -4 -5
2 -8 11 -6 10 2 22 4 26 4 5 1 5 5 2 11 -3 6 1 7 10 4 13 -5 13 -9 3 -23 -12
-14 -11 -15 5 -2 9 7 17 10 17 6 0 -4 6 -3 13 2 12 11 28 10 62 -2 20 -8 20
-8 0 8 -19 15 -19 15 8 10 16 -3 24 -10 20 -17 -4 -6 0 -5 9 2 13 10 17 10 21
0 4 -10 6 -10 6 0 1 6 6 12 12 12 5 0 8 -4 5 -8 -2 -4 4 -9 15 -9 19 -2 26 11
12 20 -5 2 -3 2 4 1 6 -2 14 4 17 12 4 10 2 13 -7 8 -9 -5 -9 -4 1 7 6 7 12
17 12 22 0 4 -6 5 -12 1 -9 -5 -9 -2 1 9 11 14 11 17 0 17 -9 0 -10 3 -4 8 12
8 14 61 3 77 -4 6 -3 17 3 25 13 21 11 32 -3 24 -10 -6 -10 -4 -2 7 5 8 10 21
9 29 -1 8 2 28 7 43 6 24 5 27 -7 17 -11 -9 -13 -7 -11 14 1 14 6 29 9 32 3 4
1 16 -5 27 -9 17 -8 19 8 13 15 -6 16 -4 7 5 -6 6 -9 18 -6 27 4 8 2 13 -3 9
-8 -4 -11 42 -4 51 2 1 3 8 4 15 1 6 8 11 16 9 11 -3 11 0 0 12 -15 19 -24 21
-14 4 4 -7 3 -8 -5 -4 -6 4 -8 13 -4 19 4 6 8 32 9 56 2 31 0 41 -6 31 -6 -8
-10 -10 -10 -4 0 5 5 15 12 22 9 9 9 12 -1 12 -10 0 -10 4 -3 13 11 13 -10 42
-22 30 -3 -4 -6 0 -6 7 0 9 -5 7 -14 -6 -14 -18 -15 -18 -25 6 -6 16 -10 19
-10 8 -1 -9 -5 -20 -11 -23 -5 -3 -7 0 -4 8 6 17 -22 31 -32 15 -4 -7 -3 -8 4
-4 7 4 12 2 12 -3 0 -6 -9 -11 -21 -11 -13 0 -18 4 -13 13 4 6 -3 3 -16 -8
-13 -11 -20 -14 -16 -7 4 7 1 12 -9 12 -10 0 -13 -5 -9 -12 4 -7 3 -8 -5 -4
-6 4 -8 13 -4 19 4 8 1 7 -9 -1 -13 -10 -17 -10 -21 0 -4 10 -6 10 -6 1 -1 -7
-5 -13 -11 -13 -5 0 -8 6 -6 13 1 6 1 9 -1 4 -3 -4 -10 -4 -15 -1 -7 5 -8 2
-3 -6 6 -10 4 -12 -7 -7 -9 3 -21 0 -27 -6 -9 -9 -10 -7 -5 8 7 18 6 19 -9 6
-10 -8 -20 -11 -24 -8 -3 4 -13 1 -21 -6 -10 -8 -13 -8 -9 -1 4 7 0 15 -9 18
-8 3 -12 2 -9 -4 3 -5 -4 -8 -15 -7 -11 1 -20 6 -20 12 0 6 -3 6 -8 -1 -12
-19 -50 -23 -48 -6 0 8 -6 17 -14 19 -10 3 -11 2 -3 -4 7 -5 9 -14 4 -22 -7
-10 -9 -9 -14 3 -7 18 -37 22 -37 5 0 -5 6 -7 13 -3 8 5 8 2 -2 -9 -16 -20
-22 -22 -18 -4 1 7 -6 11 -17 9 -13 -2 -16 1 -10 10 6 10 4 10 -9 -1 -9 -7
-17 -10 -17 -5 0 5 -8 0 -17 -11 -11 -14 -14 -15 -10 -4 3 9 -3 23 -14 32 -10
9 -19 13 -19 7 0 -5 5 -12 10 -15 6 -4 8 -11 4 -16 -3 -6 -11 -4 -17 5 -14 18
-37 16 -63 -4 -18 -14 -18 -14 0 15 l19 30 -26 -23 c-18 -17 -27 -20 -32 -11
-6 8 -4 10 5 4 9 -5 11 -4 6 4 -6 9 -11 9 -21 1 -9 -8 -17 -6 -29 6 -16 15
-17 14 -10 -12 6 -26 5 -27 -7 -12 -14 17 -33 19 -55 6 -6 -4 -21 -6 -32 -3
-13 2 -26 -3 -33 -13 -9 -14 -10 -14 -6 -1 3 9 -3 23 -14 32 -10 9 -19 13 -19
7 0 -5 5 -12 10 -15 6 -4 8 -11 4 -16 -3 -6 -12 -2 -19 8 -12 15 -16 16 -27 4
-11 -12 -11 -13 2 -6 13 8 13 7 1 -8 -17 -22 -21 -21 -16 2 2 11 -6 27 -18 38
-22 18 -22 18 -4 -3z m-1730 -29 c-3 -9 -8 -14 -10 -11 -3 3 -2 9 2 15 9 16
15 13 8 -4z m827 -5 c-24 -15 -36 -11 -14 4 10 8 21 12 24 10 2 -3 -2 -9 -10
-14z m401 7 c-6 -8 -7 -18 -3 -23 4 -4 -1 -2 -10 5 -19 14 -25 26 -9 16 5 -3
12 -1 16 5 3 5 9 10 12 10 3 0 0 -6 -6 -13z m-1317 -9 c-3 -5 -10 -6 -15 -3
-5 4 -9 1 -9 -6 0 -7 -3 -10 -6 -6 -9 9 3 24 20 24 8 0 13 -4 10 -9z m2026 7
c0 -2 -6 -8 -13 -14 -10 -8 -14 -7 -14 2 0 8 6 14 14 14 7 0 13 -1 13 -2z m67
-12 c0 -9 -4 -10 -14 -2 -7 6 -13 12 -13 14 0 1 6 2 13 2 8 0 14 -6 14 -14z
m93 12 c0 -2 -6 -8 -13 -14 -10 -8 -14 -7 -14 2 0 8 6 14 14 14 7 0 13 -1 13
-2z m-1610 -649 c0 -3 -4 -8 -10 -11 -5 -3 -10 -1 -10 4 0 6 5 11 10 11 6 0
10 -2 10 -4z m1994 -54 c3 -5 -1 -9 -9 -9 -8 0 -12 4 -9 9 3 4 7 8 9 8 2 0 6
-4 9 -8z m-1294 -16 c0 -2 -7 -7 -16 -10 -8 -3 -12 -2 -9 4 6 10 25 14 25 6z
m-3 -261 c0 -8 -4 -12 -9 -9 -4 3 -8 9 -8 15 0 5 4 9 8 9 5 0 9 -7 9 -15z m10
-411 c-3 -3 -12 -4 -19 -1 -8 3 -5 6 6 6 11 1 17 -2 13 -5z m683 -24 c0 -5 -2
-10 -4 -10 -3 0 -8 5 -11 10 -3 6 -1 10 4 10 6 0 11 -4 11 -10z m-57 -51 c-8
-8 -13 -7 -18 2 -5 8 -4 10 3 5 7 -4 12 -2 12 5 0 7 3 9 7 6 4 -4 2 -12 -4
-18z m-630 -232 c3 -8 -1 -14 -8 -14 -7 0 -11 6 -8 14 3 7 6 13 8 13 2 0 5 -6
8 -13z"/>
<path d="M5670 8456 c0 -2 8 -10 18 -17 15 -13 16 -12 3 4 -13 16 -21 21 -21
13z"/>
<path d="M5914 8440 c0 -13 4 -16 10 -10 7 7 7 13 0 20 -6 6 -10 3 -10 -10z"/>
<path d="M5000 8446 c0 -2 8 -10 18 -17 15 -13 16 -12 3 4 -13 16 -21 21 -21
13z"/>
<path d="M5359 8433 c-13 -16 -12 -17 4 -4 9 7 17 15 17 17 0 8 -8 3 -21 -13z"/>
<path d="M5796 8435 c-3 -8 -1 -15 4 -15 6 0 10 7 10 15 0 8 -2 15 -4 15 -2 0
-6 -7 -10 -15z"/>
<path d="M4185 8430 c-3 -5 -13 -7 -23 -4 -14 5 -14 4 -2 -4 9 -7 19 -7 26 -2
6 6 15 6 19 2 5 -4 5 -1 1 6 -9 15 -13 15 -21 2z"/>
<path d="M4630 8436 c0 -2 7 -7 16 -10 8 -3 12 -2 9 4 -6 10 -25 14 -25 6z"/>
<path d="M5150 8436 c0 -2 7 -7 16 -10 8 -3 12 -2 9 4 -6 10 -25 14 -25 6z"/>
<path d="M5316 8432 c-3 -5 1 -9 9 -9 8 0 12 4 9 9 -3 4 -7 8 -9 8 -2 0 -6 -4
-9 -8z"/>
<path d="M5630 8436 c0 -2 7 -7 16 -10 8 -3 12 -2 9 4 -6 10 -25 14 -25 6z"/>
<path d="M6078 8433 c7 -3 16 -2 19 1 4 3 -2 6 -13 5 -11 0 -14 -3 -6 -6z"/>
<path d="M3296 8372 c-2 -4 -1 -14 5 -22 7 -12 9 -10 9 8 0 23 -5 28 -14 14z"/>
<path d="M6629 8365 c-1 -3 -3 -9 -4 -15 -1 -5 -3 -15 -4 -21 0 -5 -5 -7 -11
-4 -6 3 -7 -1 -4 -9 3 -9 10 -13 15 -10 5 3 6 -2 3 -10 -3 -9 -11 -16 -18 -16
-6 0 -3 -5 7 -11 13 -8 15 -14 7 -29 -13 -25 -13 -33 2 -24 7 5 8 3 2 -7 -14
-23 -15 -52 -2 -61 10 -6 9 -8 -2 -8 -13 0 -13 -1 0 -10 9 -6 10 -10 3 -10 -6
0 -10 -9 -8 -20 2 -11 -2 -20 -8 -20 -7 0 -4 -5 6 -11 14 -8 15 -14 6 -31 -9
-16 -8 -23 2 -29 10 -6 11 -9 2 -9 -7 0 -13 -5 -13 -11 0 -5 5 -7 11 -3 8 5 8
1 0 -14 -6 -11 -16 -23 -23 -26 -7 -3 -2 -3 10 0 21 5 23 4 13 -14 -13 -25
-14 -35 -3 -28 8 4 9 -38 2 -54 -1 -3 -1 -13 0 -24 1 -10 -3 -15 -8 -12 -6 4
-8 -2 -5 -14 3 -11 9 -18 13 -15 10 6 7 -15 -5 -34 -5 -10 -4 -16 4 -19 9 -3
9 -7 0 -19 -10 -11 -10 -16 0 -23 11 -6 11 -8 0 -12 -12 -4 -11 -8 1 -23 9
-11 10 -16 3 -11 -8 4 -13 2 -13 -8 0 -8 4 -17 8 -20 10 -6 9 -42 -1 -52 -12
-12 -8 -26 5 -18 7 5 8 3 2 -7 -5 -8 -7 -22 -5 -33 1 -10 -2 -15 -7 -12 -6 4
-8 -2 -5 -14 3 -11 9 -18 13 -15 10 6 7 -15 -5 -34 -5 -10 -4 -16 3 -19 7 -2
9 -9 5 -15 -12 -19 -12 -67 0 -67 7 0 7 -4 -1 -12 -10 -10 -15 -10 -22 2 -5 8
-10 11 -10 6 0 -5 8 -19 17 -30 10 -12 14 -18 9 -14 -5 4 -16 2 -24 -5 -13
-10 -14 -9 -8 2 6 9 5 12 -5 9 -8 -3 -13 -10 -12 -15 1 -5 -7 -15 -19 -22 -11
-7 -17 -8 -14 -2 4 5 2 13 -4 16 -6 4 -9 1 -8 -6 2 -7 -7 -18 -19 -24 -13 -7
-20 -16 -15 -21 4 -4 0 -3 -10 4 -12 10 -18 10 -24 1 -4 -8 -3 -9 4 -5 7 4 12
1 12 -9 0 -12 -4 -14 -19 -6 -14 8 -23 6 -37 -12 -12 -14 -13 -17 -3 -9 9 6
20 8 24 4 5 -4 5 -1 0 7 -5 10 -4 12 4 7 6 -4 9 -12 5 -17 -3 -6 -9 -8 -12 -5
-3 3 -11 1 -19 -5 -7 -6 -13 -8 -13 -3 -1 5 -7 -2 -16 -16 l-15 -25 7 25 c6
22 5 23 -9 11 -9 -7 -15 -17 -12 -21 3 -5 0 -12 -6 -16 -7 -4 -9 -3 -5 4 3 6
2 13 -4 17 -5 3 -10 -1 -10 -10 0 -9 -4 -14 -9 -11 -5 3 -12 -1 -15 -10 -4
-10 -14 -14 -25 -11 -13 3 -18 0 -15 -8 3 -7 0 -16 -7 -21 -7 -4 -10 -3 -6 3
3 5 -1 10 -9 10 -8 0 -13 -6 -10 -13 9 -23 -47 -54 -60 -33 -8 14 -34 -9 -28
-25 4 -9 -3 -12 -21 -11 -21 3 -24 1 -14 -11 6 -7 16 -11 22 -7 6 3 7 1 3 -6
-6 -9 -11 -9 -22 0 -11 9 -14 8 -14 -2 0 -8 -6 -6 -16 7 -8 10 -13 13 -9 7 8
-17 -10 -50 -19 -34 -4 6 -13 11 -19 11 -7 0 -6 -4 3 -10 9 -6 10 -10 3 -10
-6 0 -24 -5 -40 -12 -15 -6 -32 -10 -36 -9 -5 1 -6 -3 -2 -9 3 -5 1 -10 -6
-10 -7 0 -9 -3 -6 -7 4 -3 15 1 25 10 16 15 19 15 19 2 0 -8 -3 -13 -5 -10 -3
3 -11 0 -18 -6 -8 -6 -21 -9 -29 -5 -8 3 -15 1 -15 -4 0 -6 5 -10 12 -10 6 0
8 -3 5 -6 -4 -4 -14 -1 -23 7 -16 13 -17 12 -12 -9 4 -15 3 -20 -5 -15 -22 14
-36 11 -30 -5 4 -10 2 -13 -5 -8 -7 4 -12 1 -12 -9 0 -9 -5 -13 -11 -10 -6 4
-8 14 -4 24 3 9 -6 3 -20 -13 -31 -36 -32 -45 -2 -20 l22 19 -19 -22 c-19 -22
-39 -25 -65 -9 -8 5 -6 -2 5 -20 l18 -29 -21 18 c-20 18 -21 17 -42 -9 -17
-22 -19 -30 -9 -43 11 -14 11 -14 -3 -4 -9 7 -20 9 -25 5 -4 -4 -2 1 5 11 12
15 12 17 -3 11 -15 -6 -20 -18 -17 -38 1 -5 -4 -4 -13 3 -11 9 -16 9 -22 0 -5
-8 -3 -10 7 -5 8 4 6 1 -3 -7 -10 -8 -15 -16 -12 -19 3 -4 -10 -5 -29 -4 -20
1 -33 -2 -31 -5 6 -10 -26 -20 -39 -13 -9 5 -9 4 0 -6 9 -10 5 -18 -18 -37
-16 -13 -33 -22 -39 -18 -5 3 -10 1 -10 -5 0 -8 -10 -10 -27 -6 -20 5 -24 4
-13 -3 13 -9 13 -12 1 -23 -10 -10 -12 -10 -7 0 4 6 3 12 -2 12 -14 0 -23 -28
-11 -34 5 -2 4 -3 -3 -1 -7 1 -12 8 -10 15 2 10 0 11 -11 2 -8 -7 -18 -8 -22
-4 -5 4 -4 1 0 -7 6 -11 4 -13 -9 -8 -10 4 -15 3 -11 -3 3 -5 -6 -19 -20 -32
-27 -24 -71 -36 -59 -16 4 7 3 8 -5 4 -6 -4 -9 -11 -6 -16 5 -7 -34 -37 -42
-32 -10 5 -32 -12 -26 -21 4 -6 0 -8 -9 -5 -8 4 -20 -2 -26 -13 -7 -10 -19
-19 -28 -19 -8 0 -13 -4 -9 -9 3 -5 1 -12 -4 -15 -5 -4 -13 -1 -17 5 -4 8 -3
9 4 5 17 -10 15 -1 -2 13 -12 10 -14 9 -12 -5 2 -10 -9 -28 -23 -40 -21 -18
-29 -20 -40 -11 -12 10 -13 9 -6 -2 6 -11 4 -13 -8 -8 -12 4 -15 1 -12 -15 3
-11 2 -18 -2 -14 -3 3 -13 0 -22 -6 -13 -10 -14 -10 -3 2 6 8 12 19 12 25 0 5
-9 -3 -19 -18 -21 -32 -29 -35 -43 -15 -6 9 -7 6 -3 -9 3 -12 1 -25 -6 -29 -7
-4 -9 -3 -6 3 4 6 0 13 -8 16 -10 4 -12 1 -8 -10 4 -10 2 -14 -5 -9 -6 3 -14
1 -18 -5 -4 -7 -3 -9 2 -6 6 3 16 1 24 -4 12 -7 11 -8 -5 -6 -11 1 -26 7 -34
11 -10 7 -12 6 -6 -4 6 -10 4 -12 -8 -7 -9 3 -16 3 -16 -1 4 -22 -4 -29 -31
-27 -16 1 -29 0 -28 -4 2 -22 -4 -32 -18 -27 -8 3 -12 2 -9 -3 3 -5 1 -12 -5
-16 -6 -4 -7 -11 -4 -17 4 -7 2 -8 -5 -4 -6 4 -9 11 -7 15 3 4 -1 8 -8 8 -8 0
-12 -11 -11 -29 1 -16 -2 -31 -6 -33 -4 -3 -6 6 -5 20 3 21 1 23 -15 14 -11
-5 -19 -12 -19 -15 0 -3 3 -3 8 -1 4 3 7 -21 7 -53 0 -37 -4 -56 -11 -53 -6 2
-11 -3 -11 -11 0 -8 5 -12 11 -10 6 2 11 -7 11 -20 0 -13 -5 -22 -10 -19 -6 2
-11 -7 -11 -21 0 -14 3 -23 7 -20 4 2 10 -3 13 -12 5 -13 2 -15 -14 -11 -17 4
-19 3 -9 -9 6 -7 15 -12 18 -9 4 2 8 -1 9 -8 0 -7 3 -22 6 -35 3 -12 1 -20 -3
-17 -5 2 -15 -3 -22 -12 -8 -9 -9 -14 -3 -10 7 4 15 0 18 -9 5 -12 2 -15 -11
-10 -10 4 -14 4 -10 0 4 -4 1 -14 -6 -22 -10 -13 -9 -14 12 -3 16 9 21 9 16 2
-4 -7 -2 -18 4 -25 12 -14 2 -28 -29 -39 -12 -4 -12 -6 1 -6 9 -1 20 -8 23
-17 4 -11 2 -15 -7 -11 -7 3 -13 -3 -13 -14 0 -13 4 -15 12 -8 9 8 11 4 7 -13
-4 -13 -11 -26 -17 -30 -7 -5 -3 -8 9 -9 l20 0 -20 -9 c-15 -6 -16 -9 -4 -9 9
-1 16 -8 16 -16 0 -10 -4 -12 -12 -5 -8 7 -12 5 -12 -5 0 -8 5 -15 11 -15 6 0
11 -11 11 -24 0 -20 -3 -22 -14 -13 -12 10 -13 9 -6 -3 4 -8 13 -21 19 -29 12
-16 17 -43 6 -36 -4 3 -14 -3 -21 -12 -8 -9 -9 -14 -3 -10 7 4 15 0 18 -9 5
-13 2 -15 -14 -11 -17 4 -19 3 -9 -9 6 -7 16 -11 22 -7 6 3 7 1 3 -6 -4 -6 -2
-19 6 -28 7 -9 8 -14 2 -10 -7 4 -18 -1 -25 -10 -10 -12 -10 -14 -1 -9 13 8
13 8 16 -47 1 -26 -2 -36 -11 -33 -8 3 -10 -1 -6 -11 5 -12 3 -14 -7 -8 -9 5
-11 4 -6 -4 6 -9 11 -9 24 1 12 10 14 10 8 1 -4 -7 -4 -19 1 -25 13 -21 12
-35 -3 -35 -10 0 -11 4 -3 13 7 8 6 14 -2 20 -7 4 -9 3 -5 -4 3 -6 2 -13 -4
-17 -7 -4 -5 -14 5 -27 13 -19 12 -23 -3 -35 -16 -14 -16 -14 1 -9 11 3 16 2
12 -4 -3 -6 -3 -16 2 -22 10 -17 13 -38 5 -37 -19 3 -22 -3 -12 -21 6 -11 7
-20 1 -20 -5 0 -12 -7 -15 -16 -6 -15 -4 -15 11 -3 11 9 14 10 9 2 -4 -7 -4
-19 1 -25 12 -21 12 -35 -3 -35 -7 0 -10 5 -7 10 3 6 1 7 -5 3 -9 -5 -7 -14 4
-32 10 -15 12 -24 5 -24 -6 0 -11 -9 -11 -21 0 -13 -4 -18 -12 -13 -9 5 -9 2
1 -9 14 -18 26 -23 16 -8 -3 5 -1 12 5 16 6 4 7 11 4 17 -4 7 -2 8 5 4 7 -5 9
-12 3 -19 -5 -7 -8 -27 -7 -44 1 -33 -9 -44 -19 -20 -2 6 -4 2 -2 -10 1 -12 6
-26 11 -30 4 -5 5 -2 0 6 -5 10 -4 12 4 7 6 -4 9 -12 6 -17 -4 -5 -1 -9 6 -9
8 0 8 -4 -1 -15 -10 -12 -10 -15 0 -15 9 0 9 -4 -1 -17 -10 -12 -10 -15 -1 -9
16 9 54 -2 47 -15 -4 -5 1 -9 9 -9 9 0 16 -5 16 -11 0 -8 6 -7 17 2 11 10 14
10 9 2 -4 -7 -3 -13 3 -13 5 0 13 -9 16 -21 4 -11 13 -18 20 -15 7 2 23 -4 35
-14 13 -11 26 -17 31 -15 4 3 11 -4 14 -16 6 -16 12 -19 33 -15 20 5 23 4 12
-3 -13 -9 -13 -12 -1 -23 11 -11 13 -11 6 0 -6 11 -3 12 14 3 12 -7 26 -9 31
-6 6 3 7 -1 4 -10 -5 -11 -10 -13 -19 -5 -10 8 -15 8 -21 -1 -4 -7 -3 -9 4 -5
6 3 14 2 17 -4 5 -8 11 -7 21 1 16 13 19 -1 4 -19 -7 -9 -7 -9 2 -2 7 5 19 10
27 10 11 0 10 -4 -4 -20 -10 -11 -13 -20 -7 -20 7 0 12 5 12 11 0 6 6 9 13 6
6 -2 11 -9 10 -15 -1 -5 6 -8 16 -5 10 3 22 -1 26 -8 6 -8 4 -10 -6 -5 -8 4
-5 0 5 -8 11 -9 30 -16 42 -16 12 0 28 -8 35 -17 10 -11 10 -14 2 -9 -7 4 -13
2 -13 -3 0 -6 10 -11 23 -11 13 0 32 -13 46 -30 19 -24 26 -28 37 -19 12 10
13 8 8 -6 -5 -13 -4 -16 4 -11 7 4 12 2 12 -4 0 -6 5 -8 10 -5 6 3 10 2 10 -2
0 -5 -4 -14 -10 -21 -7 -9 -7 -9 1 -3 8 6 19 5 33 -4 22 -15 68 -17 60 -3 -3
5 -10 6 -15 3 -5 -4 -9 -2 -9 4 0 5 6 11 13 14 9 3 9 8 -2 21 -12 14 -12 16 2
10 12 -4 14 -1 10 15 -3 12 -9 21 -12 21 -4 0 -8 7 -8 15 0 12 3 12 15 2 13
-10 14 -9 4 10 -15 28 -15 36 1 27 6 -4 3 3 -8 16 -11 13 -14 20 -7 16 6 -4
12 -3 12 1 0 5 -6 15 -12 22 -10 11 -10 13 0 7 7 -4 12 -1 12 8 0 9 -6 16 -12
16 -9 0 -8 3 2 9 8 6 18 7 24 4 5 -3 6 -1 2 6 -4 6 -13 9 -19 5 -7 -3 -4 1 6
9 16 13 16 15 2 21 -11 4 -14 2 -9 -6 4 -7 3 -8 -4 -4 -15 9 7 47 23 40 5 -3
-1 4 -14 15 -21 19 -21 21 -5 21 18 1 18 1 1 14 -15 12 -16 14 -2 20 8 3 14
11 13 18 -2 7 2 12 9 13 6 0 15 3 19 7 3 4 -2 6 -13 4 -11 -3 -26 0 -34 5 -8
5 -9 9 -2 9 6 0 10 11 8 25 -1 17 1 23 9 18 7 -5 3 0 -7 10 -19 16 -19 17 -1
17 18 1 18 1 1 14 -15 12 -16 14 -2 20 8 3 14 11 13 18 -2 7 2 12 9 13 6 0 15
3 19 7 3 4 -2 6 -13 4 -11 -3 -26 0 -34 5 -9 6 -10 9 -2 9 7 0 10 7 6 17 -4
11 -3 14 5 9 8 -5 10 -2 6 8 -3 9 -10 13 -16 10 -5 -3 -4 3 3 14 7 12 18 18
24 14 12 -7 -15 29 -30 40 -9 7 8 12 28 9 5 -1 6 3 2 9 -3 6 -12 8 -18 4 -7
-3 -4 1 6 9 16 13 16 15 2 21 -11 4 -14 2 -9 -6 4 -7 3 -8 -4 -4 -6 4 -9 13
-6 21 4 8 11 12 17 8 6 -3 7 -1 3 6 -4 6 -2 19 5 27 7 8 8 14 3 13 -21 -4 -35
2 -29 11 4 6 11 7 17 4 6 -4 6 2 -1 15 -10 18 -9 20 6 15 14 -5 15 -4 4 4 -8
6 -15 20 -16 31 -1 17 1 19 14 8 12 -8 11 -6 -2 9 -9 11 -14 23 -11 27 4 3 3
14 -1 24 -14 32 -14 42 2 36 13 -5 12 -1 -3 23 l-18 29 24 -20 c14 -11 20 -13
14 -5 -6 8 -14 28 -18 43 -5 22 -4 27 6 21 7 -4 4 3 -7 16 -11 13 -14 20 -7
16 7 -4 12 -1 12 8 0 9 -5 16 -12 16 -6 0 -3 7 8 16 10 8 12 13 4 9 -8 -4 -6
1 5 11 17 14 17 16 3 11 -22 -8 -24 11 -3 19 13 5 13 8 2 18 -17 13 -32 50
-17 41 6 -3 10 1 10 9 0 9 -6 16 -12 16 -9 0 -8 4 2 10 13 8 13 13 2 31 -8 11
-9 18 -3 14 6 -3 11 1 11 9 0 9 -5 16 -11 16 -6 0 -3 7 5 16 21 21 20 30 -1
13 -17 -13 -17 -13 -2 11 9 14 21 25 27 25 6 0 13 3 17 7 4 3 0 5 -9 4 -8 -1
-19 -5 -22 -9 -13 -13 -27 -8 -17 6 14 18 24 49 14 43 -5 -3 -11 1 -14 9 -4
10 -1 12 10 8 13 -5 13 -3 5 14 -10 18 -9 20 15 15 21 -4 25 -2 20 11 -4 12 0
14 17 11 13 -2 29 3 36 11 7 8 16 13 20 10 5 -3 12 0 16 6 4 8 3 9 -4 5 -7 -4
-12 -3 -12 3 0 5 5 13 10 16 6 4 7 11 4 17 -4 7 -2 8 5 4 6 -4 9 -11 6 -16 -3
-5 0 -12 6 -16 8 -5 9 -3 4 6 -6 10 -4 12 10 6 15 -5 16 -4 5 9 -11 13 -10 14
4 9 11 -4 16 -2 14 6 -2 7 3 15 11 18 10 3 11 0 5 -9 -6 -11 -5 -12 7 -2 11 9
19 9 26 2 6 -6 10 -5 10 5 0 8 -4 13 -9 10 -4 -3 -8 -1 -8 4 0 17 13 21 34 10
19 -10 19 -9 8 4 -10 13 -10 18 -1 24 8 4 9 3 5 -4 -4 -7 -2 -12 3 -12 6 0 11
5 11 11 0 5 5 7 10 4 6 -3 10 -1 10 5 0 6 5 8 12 4 7 -4 8 -3 4 4 -12 20 4 35
21 21 12 -11 14 -10 11 3 -1 9 2 17 7 18 6 1 16 7 24 13 12 9 13 9 7 0 -4 -7
-2 -13 3 -13 6 0 11 7 11 17 0 15 1 15 18 0 15 -14 19 -15 19 -2 0 8 -4 12 -8
10 -4 -3 -9 2 -12 10 -4 9 -1 12 9 8 7 -3 14 0 14 6 0 6 5 11 11 11 5 0 7 -6
4 -12 -4 -7 -1 -6 7 3 7 9 20 15 29 14 9 -2 16 3 16 10 0 7 -5 12 -11 11 -6
-2 -8 -1 -4 1 4 3 11 5 15 5 5 1 14 8 21 17 12 14 13 14 8 -3 -6 -16 -4 -17 9
-6 8 7 13 16 10 20 -3 5 0 12 6 16 8 5 9 3 4 -6 -5 -8 -3 -11 6 -8 8 3 13 12
11 19 -1 8 5 5 14 -6 12 -14 15 -15 11 -4 -4 11 3 20 19 28 14 6 23 15 20 19
-3 4 8 7 25 6 21 -1 29 2 29 14 0 12 -3 13 -12 4 -7 -7 -16 -12 -22 -12 -5 0
-1 6 9 14 11 8 26 11 34 8 9 -3 12 -1 7 6 -5 8 -1 10 10 5 13 -5 15 -3 9 8 -7
12 -6 12 11 -1 10 -8 16 -11 12 -6 -3 4 2 16 13 27 11 11 17 25 13 31 -5 7 -3
8 5 4 7 -5 10 -15 6 -24 -5 -13 -2 -12 13 3 11 11 18 23 15 27 -2 4 4 5 13 1
12 -4 15 -3 10 5 -4 7 -1 12 9 12 10 0 14 -5 10 -12 -4 -7 3 -3 14 10 11 13
22 23 25 22 18 -1 19 1 6 10 -11 8 -9 9 12 6 19 -3 25 -1 22 9 -3 7 0 16 7 21
7 4 10 3 6 -3 -4 -6 4 -10 18 -10 20 0 23 2 13 11 -7 6 -11 10 -9 9 2 -2 11 3
19 10 13 10 14 9 7 -2 -6 -10 -4 -12 4 -7 7 5 10 14 7 21 -3 8 2 11 15 8 11
-3 19 0 19 6 0 7 -6 9 -12 5 -7 -4 -9 -3 -5 1 10 12 38 15 31 4 -3 -5 0 -9 5
-9 6 0 11 9 11 20 0 11 3 19 8 19 24 -4 52 2 47 11 -11 18 5 31 26 20 15 -9
19 -7 19 5 0 10 -5 13 -12 9 -8 -4 -10 -3 -5 2 9 9 14 11 48 13 11 0 17 6 14
11 -3 6 -1 10 4 10 6 0 11 -7 11 -16 0 -8 5 -12 10 -9 15 9 12 -2 -6 -19 -14
-15 -14 -16 1 -16 13 0 14 -4 5 -20 -6 -11 -8 -20 -4 -20 3 0 1 -7 -6 -15 -11
-13 -10 -14 1 -10 10 4 15 -2 16 -17 2 -18 0 -20 -7 -8 -6 9 -10 10 -10 3 0
-6 5 -15 10 -18 7 -4 6 -13 -1 -27 -8 -16 -8 -22 2 -29 10 -6 10 -10 0 -23
-10 -12 -11 -20 -2 -29 8 -10 7 -17 -2 -26 -9 -9 -9 -14 3 -21 12 -8 12 -10 1
-10 -10 0 -11 -3 -2 -13 8 -10 7 -17 -1 -25 -7 -7 -8 -12 -4 -12 5 0 2 -8 -5
-17 -8 -9 -9 -14 -3 -10 7 4 14 -2 17 -13 3 -11 1 -18 -4 -14 -5 3 -9 -4 -9
-16 0 -12 4 -19 9 -16 10 7 9 -20 -2 -30 -11 -12 -8 -26 4 -18 8 5 8 1 0 -14
-14 -27 -14 -35 2 -26 9 6 9 5 0 -8 -7 -8 -10 -18 -6 -21 3 -4 1 -7 -6 -7 -9
0 -8 -5 3 -15 12 -12 15 -50 6 -75 -1 -3 -1 -13 0 -24 1 -12 -2 -16 -12 -11
-10 6 -10 5 -1 -5 6 -7 9 -19 6 -28 -4 -9 -2 -13 4 -9 8 5 10 -24 3 -43 -1 -3
-1 -13 0 -24 1 -10 -3 -15 -8 -12 -6 4 -8 -2 -5 -14 3 -11 9 -18 12 -15 4 2 8
-2 8 -10 0 -8 -4 -12 -9 -9 -4 3 -8 1 -8 -5 0 -5 5 -13 10 -16 8 -5 8 -11 1
-19 -6 -7 -8 -16 -4 -19 3 -4 0 -7 -8 -7 -10 -1 -9 -4 4 -11 10 -6 14 -15 10
-22 -4 -7 -8 -36 -9 -66 -1 -34 1 -49 7 -40 5 8 9 9 9 3 0 -6 -3 -14 -7 -18
-11 -11 -12 -76 0 -69 6 4 7 1 1 -8 -14 -23 -16 -51 -2 -43 13 8 4 -9 -21 -41
-10 -13 -11 -16 -1 -7 20 18 32 15 22 -5 -10 -21 -10 -33 1 -50 5 -7 4 -13 0
-13 -5 0 -9 -9 -10 -20 -1 -13 2 -18 9 -14 7 5 8 2 2 -7 -13 -22 -14 -90 0
-82 6 4 3 -5 -7 -20 -14 -22 -14 -25 -2 -21 11 5 13 2 9 -10 -3 -9 -10 -14
-14 -11 -5 3 -12 1 -15 -5 -4 -6 -1 -9 7 -8 8 2 13 -8 13 -27 0 -16 4 -36 9
-44 7 -11 5 -13 -9 -7 -13 5 -15 3 -8 -6 6 -7 9 -26 8 -43 -1 -16 3 -36 9 -44
8 -11 8 -13 -1 -8 -16 10 -10 -20 7 -36 10 -9 11 -9 6 1 -5 7 -1 12 9 12 9 0
13 -5 9 -11 -4 -8 1 -9 17 -4 21 7 22 6 10 -9 -11 -13 -11 -16 0 -16 10 0 11
-3 3 -8 -8 -5 -7 -11 4 -22 14 -13 15 -12 9 3 -3 9 -3 17 1 17 12 0 32 -61 25
-74 -3 -6 -3 -8 2 -4 5 5 15 -1 22 -12 8 -11 18 -18 23 -15 5 3 11 1 14 -4 3
-5 16 -7 29 -3 19 5 20 3 9 -10 -11 -14 -10 -16 7 -11 12 3 28 0 36 -7 16 -13
35 -6 34 13 0 9 -2 9 -6 0 -2 -7 -9 -13 -15 -13 -6 0 -6 6 2 15 9 11 16 12 30
3 10 -7 16 -17 14 -23 -3 -5 2 -1 10 9 16 20 16 20 17 0 0 -17 1 -16 9 4 8 19
12 21 29 10 11 -6 17 -17 15 -23 -3 -5 2 -1 10 9 9 11 16 14 16 8 0 -7 5 -12
11 -12 5 0 7 5 3 12 -4 6 -3 8 4 4 6 -3 14 -2 17 4 5 8 11 7 21 -1 11 -9 14
-8 14 2 0 11 2 11 10 -1 5 -8 10 -11 10 -6 0 5 12 -1 27 -15 14 -13 23 -18 19
-11 -8 13 39 36 54 27 5 -3 11 -1 15 5 4 6 12 7 18 3 17 -11 86 -12 93 -2 3 5
11 9 17 9 7 0 6 -4 -3 -10 -12 -8 -10 -10 10 -7 14 1 31 6 38 10 12 8 13 7 16
-12 0 -5 5 -13 10 -18 5 -5 6 -3 2 5 -4 6 -2 12 4 12 6 0 8 5 4 13 -6 9 -5 9
7 0 12 -10 18 -10 29 0 10 9 11 9 6 0 -5 -9 1 -13 18 -13 14 0 26 5 26 10 0 6
11 3 25 -6 14 -9 25 -12 25 -6 0 6 8 9 18 7 9 -1 22 2 29 7 7 6 14 5 19 -3 5
-8 3 -9 -6 -4 -9 6 -11 4 -5 -5 6 -9 4 -11 -5 -5 -9 6 -11 4 -5 -5 6 -10 13
-8 28 11 12 14 18 17 14 7 -3 -10 1 -22 11 -30 15 -12 16 -11 4 4 -9 12 -10
18 -2 23 6 4 14 4 17 1 3 -3 13 0 21 7 13 10 14 9 8 -1 -6 -10 -2 -13 15 -12
13 1 31 2 39 1 13 -1 13 -2 0 -11 -9 -6 -10 -10 -3 -10 7 0 16 7 21 16 6 11
12 13 16 6 4 -8 15 -8 31 -2 14 5 25 7 25 4 0 -4 6 -1 14 5 10 8 16 9 21 1 9
-14 28 -13 19 3 -6 10 -4 10 7 0 16 -16 79 -17 79 -2 0 8 4 8 13 1 14 -12 65
-11 86 2 10 7 12 5 6 -4 -6 -10 -4 -12 10 -6 16 6 16 4 4 -11 -10 -14 -10 -16
0 -6 7 6 19 10 25 9 6 -2 8 -1 4 1 -5 3 -8 10 -8 16 0 5 3 7 7 4 3 -4 13 -1
22 7 16 14 20 16 44 16 8 0 7 4 -3 11 -12 9 -11 10 7 6 19 -4 21 -2 13 19 -7
17 -6 23 3 21 7 -1 11 4 9 11 -1 8 2 11 8 7 5 -3 13 1 16 9 3 9 12 16 20 16 8
0 14 9 14 21 0 11 5 17 10 14 6 -4 7 -12 3 -18 -4 -7 0 -6 10 2 18 15 23 26 7
16 -16 -10 -12 11 5 25 8 6 19 9 25 5 7 -4 7 3 0 22 -9 26 -9 27 5 9 15 -20
15 -20 16 0 1 10 1 22 0 26 0 4 5 5 13 2 7 -3 19 3 27 13 13 17 13 17 -5 3
-17 -13 -19 -13 -14 0 3 8 15 15 26 14 12 0 20 2 17 4 -8 8 16 32 26 26 11 -6
12 10 2 20 -10 10 -13 37 -3 31 5 -3 14 4 20 15 6 11 15 18 21 15 5 -4 9 1 9
9 0 14 18 21 43 17 4 -1 3 7 -2 17 -7 14 -5 21 12 32 21 12 21 12 7 -6 -14
-19 -14 -19 7 0 23 19 25 35 8 49 -5 5 0 5 13 2 12 -4 22 -3 21 2 -3 19 2 33
12 33 5 0 7 -5 3 -12 -4 -6 -3 -8 4 -4 6 3 8 19 6 34 -5 26 -5 26 10 7 15 -20
15 -20 11 2 -2 13 5 28 18 40 l22 18 -19 -22 c-11 -13 -14 -23 -9 -23 11 0 27
29 25 43 -2 6 13 11 30 8 4 0 5 6 2 14 -4 8 -15 15 -25 15 -10 0 -19 6 -20 13
0 6 -4 3 -9 -8 -7 -17 -9 -17 -9 -2 -1 9 -6 17 -12 17 -5 0 -8 -4 -5 -9 4 -5
-2 -8 -11 -6 -10 1 -24 -2 -30 -7 -9 -7 -15 -6 -18 4 -6 16 -82 17 -106 3 -7
-5 -10 -3 -7 6 3 8 11 13 17 11 7 -1 10 2 6 8 -5 8 -11 8 -20 0 -8 -7 -19 -9
-24 -6 -5 4 -12 2 -15 -3 -4 -5 -1 -13 5 -17 8 -5 9 -3 4 6 -5 9 -4 11 4 6 15
-10 4 -27 -14 -20 -7 3 -16 13 -20 22 -6 15 -8 15 -21 -2 -9 -13 -14 -15 -14
-6 0 9 -6 8 -21 -6 -15 -14 -20 -15 -17 -4 2 8 7 18 11 21 5 3 1 9 -8 12 -9 4
-14 3 -11 -1 2 -4 1 -14 -5 -22 -7 -12 -9 -12 -9 -1 0 11 -3 11 -15 1 -9 -7
-19 -10 -22 -6 -4 4 -1 11 7 16 9 6 10 10 3 10 -7 0 -17 -8 -22 -17 -6 -10
-11 -13 -11 -6 0 6 -10 9 -22 7 -13 -2 -17 -2 -10 2 6 3 9 10 6 16 -4 6 -12 1
-20 -13 -7 -13 -13 -18 -14 -10 0 11 -5 9 -21 -5 -22 -19 -22 -19 -10 4 7 13
10 26 7 30 -3 3 -6 0 -6 -8 0 -10 -4 -10 -17 1 -16 13 -17 12 -4 -3 7 -10 10
-18 5 -19 -5 0 -17 -2 -27 -4 -9 -2 -15 1 -11 6 3 5 -2 9 -11 9 -10 0 -14 -5
-9 -12 5 -10 4 -10 -6 -1 -8 8 -20 9 -37 2 -22 -8 -24 -7 -18 12 6 19 5 20 -8
8 -8 -8 -12 -18 -9 -24 2 -5 -1 -5 -8 2 -9 8 -19 9 -32 2 -13 -7 -18 -6 -18 3
0 9 -3 9 -12 0 -18 -18 -28 -15 -29 11 -1 21 -1 21 -9 -3 -4 -14 -8 -20 -9
-13 -1 6 -10 10 -21 8 -11 -2 -20 2 -21 8 0 7 -4 3 -9 -8 -5 -11 -9 -14 -9 -6
-1 11 -4 11 -18 0 -14 -12 -16 -12 -8 0 6 11 4 13 -7 8 -9 -3 -20 -1 -26 5 -6
6 -12 6 -17 -3 -6 -8 -4 -10 5 -4 8 5 11 4 7 -3 -4 -5 -13 -9 -20 -8 -21 3
-38 17 -32 27 10 15 -2 10 -16 -8 -12 -14 -12 -16 0 -8 10 5 12 4 7 -3 -4 -7
-2 -12 5 -12 7 0 9 -3 6 -7 -4 -3 -16 2 -27 12 -11 10 -20 15 -20 10 0 -4 -8
-1 -17 6 -11 10 -14 10 -9 2 11 -19 -4 -16 -27 5 -11 9 -18 12 -14 7 3 -6 2
-17 -4 -25 -7 -12 -9 -12 -9 -1 0 11 -3 11 -15 1 -18 -15 -20 1 -3 18 9 9 5 9
-14 0 -17 -8 -22 -15 -15 -20 7 -4 -2 -6 -18 -4 -23 3 -29 8 -27 22 2 15 1 16
-7 4 -5 -8 -7 -18 -5 -22 3 -4 0 -8 -5 -8 -6 0 -11 5 -11 10 0 6 -5 10 -11 10
-5 0 -8 -4 -5 -8 3 -5 -1 -9 -9 -9 -8 0 -12 4 -9 8 2 4 -1 11 -7 15 -7 4 -9 3
-6 -2 3 -6 2 -16 -4 -24 -7 -13 -9 -12 -9 3 0 20 -30 23 -49 5 -10 -11 -11 -9
-5 6 4 11 3 17 -2 14 -5 -4 -9 13 -9 37 0 24 4 41 9 37 5 -3 6 1 1 8 -12 20
-12 60 0 60 5 0 3 5 -5 10 -9 6 -11 10 -3 10 7 0 10 7 7 15 -4 8 -10 12 -15 9
-5 -3 -6 2 -3 10 3 9 12 12 22 8 14 -5 14 -3 -2 13 -11 11 -14 21 -8 23 6 2 8
10 5 18 -3 7 -9 11 -14 8 -5 -3 -6 2 -3 10 3 9 12 12 22 8 15 -5 14 -3 -1 13
-11 11 -15 20 -8 24 6 4 7 12 1 21 -15 23 -12 30 8 23 16 -6 16 -5 -1 12 -15
14 -16 20 -6 26 10 6 10 9 -4 14 -16 7 -16 8 1 24 10 9 13 13 7 9 -6 -4 -11 1
-11 13 0 10 5 19 10 19 5 0 1 7 -10 16 -10 8 -14 13 -8 10 16 -8 26 21 12 30
-8 5 -5 10 8 15 17 7 16 8 -6 8 -19 1 -22 3 -10 10 8 6 19 7 25 5 5 -3 3 0 -5
8 -10 8 -14 27 -13 52 1 22 -3 46 -9 53 -8 10 -7 12 5 8 8 -4 18 -1 22 5 3 6
1 9 -6 8 -16 -4 -19 24 -4 34 6 5 6 8 -2 8 -7 0 -13 5 -13 11 0 5 5 7 12 3 7
-5 8 -3 3 6 -4 7 -2 16 6 22 11 8 10 9 -3 5 -9 -3 -19 0 -22 8 -3 9 0 12 8 9
8 -3 17 0 21 6 3 6 1 9 -6 8 -20 -5 -22 30 -2 35 17 4 17 5 1 6 -10 0 -18 6
-18 12 0 5 6 7 13 3 8 -5 8 -2 -2 9 -12 15 -11 17 4 17 14 0 13 3 -6 21 -13
11 -18 18 -11 14 9 -5 12 8 10 54 -3 51 0 60 12 56 11 -4 11 -2 -2 8 -12 10
-14 17 -6 31 8 14 7 17 -1 12 -6 -4 -11 -2 -11 3 0 6 5 11 10 11 7 0 7 6 0 19
-13 25 -13 34 1 25 8 -5 8 -1 0 14 -6 11 -11 23 -11 27 0 3 5 3 11 -1 7 -4 6
2 -1 17 -10 18 -10 24 -1 27 9 3 9 7 0 18 -10 12 -8 18 7 29 13 11 15 15 4 13
-9 -2 -14 3 -12 14 1 9 -3 20 -9 24 -8 5 -4 13 12 26 14 12 17 18 8 15 -13 -4
-16 0 -15 19 0 13 4 24 9 24 4 0 7 5 7 11 0 5 -4 7 -10 4 -14 -9 -13 8 2 23 8
8 8 15 -2 27 -10 13 -9 15 6 16 14 1 13 3 -6 9 -16 5 -19 8 -8 9 9 1 20 6 23
11 4 6 3 10 -2 9 -22 -4 -24 3 -7 29 13 21 14 24 2 14 -13 -10 -17 -10 -22 3
-4 11 -2 14 6 9 8 -5 9 2 5 25 -4 18 -3 30 1 27 4 -2 9 5 9 17 2 15 0 18 -6 9
-6 -10 -10 -8 -14 7 -3 12 -2 19 3 16 13 -8 19 22 7 34 -8 8 -6 11 9 11 17 1
17 2 3 10 -13 8 -15 18 -9 50 4 22 3 40 -1 40 -5 0 -9 5 -9 11 0 5 5 7 11 3 8
-5 8 -1 0 14 -16 30 -14 36 7 21 15 -13 16 -12 3 3 -7 10 -13 36 -13 58 1 24
-4 40 -11 40 -7 0 -6 4 3 9 8 6 19 7 25 5 5 -3 3 1 -7 8 -12 11 -14 18 -6 32
8 14 7 17 -1 12 -6 -4 -11 -2 -11 3 0 6 5 11 10 11 7 0 7 6 0 19 -13 25 -13
34 1 25 8 -5 8 -1 0 14 -6 11 -11 23 -11 27 0 3 5 3 11 -1 7 -4 6 2 -1 17 -10
17 -10 24 -1 27 6 2 11 8 11 13 0 6 -4 7 -10 4 -17 -11 -11 17 8 32 13 10 13
13 2 11 -9 -2 -14 3 -12 14 1 9 -3 20 -9 24 -8 5 -4 13 12 26 13 11 19 17 12
14 -15 -8 -27 10 -13 19 8 5 7 11 -1 21 -8 10 -8 14 -1 14 6 0 9 6 6 13 -3 8
2 14 11 14 10 0 14 -6 10 -16 -4 -11 -1 -10 15 4 11 10 20 15 20 10 0 -4 6 -2
14 4 10 9 16 9 21 1 4 -6 15 -8 26 -5 10 4 19 2 19 -3 0 -6 7 -13 16 -16 15
-6 15 -4 3 10 -13 16 -12 16 11 4 23 -12 24 -12 11 4 -12 14 -12 16 3 10 9 -3
16 -10 16 -15 0 -5 12 -7 28 -4 51 11 67 10 82 -5 8 -9 12 -11 8 -5 -4 7 -5
15 -1 18 12 12 23 7 24 -10 0 -15 2 -15 9 2 6 13 9 15 9 5 1 -13 2 -13 11 0 5
8 10 10 10 4 0 -7 7 -15 16 -18 13 -5 14 -3 6 6 -8 10 -4 13 14 14 13 1 24 -2
24 -6 0 -4 7 -11 16 -14 13 -5 14 -3 6 6 -8 10 -4 13 14 14 13 1 24 -2 24 -7
0 -5 5 -9 11 -9 5 0 7 4 4 10 -4 6 1 7 12 3 16 -6 17 -5 3 12 -14 17 -14 17 8
4 12 -8 22 -18 22 -22 0 -5 10 -5 21 -2 14 5 19 3 15 -3 -3 -6 -2 -13 3 -17 6
-3 8 3 6 15 -2 11 0 20 6 20 5 0 9 -4 9 -10 0 -5 5 -10 11 -10 5 0 7 4 4 10
-4 6 1 7 11 3 12 -4 15 -3 10 5 -12 19 2 14 23 -9 14 -15 21 -17 26 -8 6 8 4
10 -6 4 -12 -7 -12 -5 -1 6 11 12 14 12 22 -1 5 -8 6 -19 3 -25 -4 -5 -2 -6 3
-2 5 5 9 13 9 18 0 5 4 8 10 7 5 -2 9 -7 7 -11 -1 -5 2 -6 8 -2 6 3 8 11 5 16
-11 16 7 10 22 -8 8 -10 12 -13 9 -6 -4 6 -2 14 4 18 5 3 10 1 10 -5 0 -7 5
-8 13 -3 19 12 51 10 69 -5 12 -10 18 -11 24 -1 4 8 3 10 -4 5 -8 -5 -10 -1
-5 10 5 14 7 15 15 1 5 -10 15 -14 25 -10 12 5 14 3 8 -7 -5 -9 -4 -11 4 -6 6
4 9 12 6 17 -4 5 -1 9 4 9 6 0 11 -4 11 -10 0 -5 5 -10 11 -10 5 0 7 4 4 10
-4 6 1 7 11 3 12 -4 15 -3 10 5 -5 8 -2 10 8 6 9 -3 16 -10 16 -15 0 -5 5 -9
11 -9 5 0 8 3 6 8 -3 4 6 8 19 8 13 1 24 -2 24 -7 0 -5 5 -9 11 -9 5 0 7 4 4
10 -3 5 0 7 9 4 8 -3 12 -13 9 -22 -4 -14 -3 -15 5 -2 8 10 8 18 0 27 -8 10
-7 12 6 7 9 -3 16 -11 16 -18 0 -6 5 -4 10 4 8 13 10 13 10 -2 0 -9 4 -19 9
-22 5 -4 7 4 4 16 -4 19 -3 20 6 8 9 -12 11 -12 11 -1 0 9 7 6 20 -9 11 -13
20 -19 20 -14 0 6 -6 16 -12 23 -11 11 -9 12 8 3 15 -8 24 -8 34 1 10 9 11 9
6 -1 -4 -7 -2 -21 6 -30 12 -15 11 -16 -5 -3 -15 12 -17 12 -11 -3 3 -9 9 -16
13 -16 4 0 8 -7 8 -15 0 -8 -7 -15 -16 -15 -13 0 -13 -2 -2 -9 7 -5 15 -24 16
-42 3 -31 2 -32 -11 -14 -8 10 -14 14 -14 8 0 -7 6 -18 13 -25 13 -14 18 -78
5 -78 -14 0 -9 -22 10 -44 17 -20 17 -20 -10 -4 l-26 17 16 -32 c22 -44 24
-80 3 -72 -13 4 -12 2 2 -9 15 -12 15 -14 2 -19 -8 -4 -12 -13 -9 -22 3 -8 10
-13 14 -10 5 3 11 1 15 -5 3 -5 -3 -15 -15 -22 -22 -14 -28 -30 -7 -22 9 3 13
-6 13 -30 0 -19 -3 -33 -7 -30 -10 6 -18 -21 -11 -33 4 -5 14 -13 22 -16 13
-4 12 -6 -1 -6 -9 -1 -19 -11 -22 -23 -6 -22 -5 -22 8 -4 13 18 14 18 12 -3
-1 -11 -4 -21 -7 -21 -3 0 -6 -9 -7 -20 -1 -13 3 -18 10 -14 7 3 3 -2 -7 -10
-19 -16 -19 -16 3 -16 12 0 20 -4 17 -9 -9 -14 15 -19 47 -10 22 6 27 4 28 -9
0 -14 2 -14 8 2 4 11 15 20 24 22 10 1 15 -2 11 -7 -3 -5 -10 -7 -15 -4 -5 4
-9 2 -9 -3 0 -6 18 -9 40 -7 24 1 40 -2 40 -9 0 -6 6 -4 13 4 13 17 51 15 41
-2 -4 -7 -2 -8 5 -4 9 6 9 12 -1 24 -9 12 -6 11 10 -2 12 -11 22 -15 22 -10 0
5 5 2 11 -6 8 -12 9 -10 4 8 -6 21 -5 22 13 11 12 -7 18 -18 14 -24 -4 -7 -1
-7 9 1 16 12 28 12 49 0 12 -7 13 -6 3 5 -21 21 -15 31 9 15 19 -14 23 -14 35
2 12 16 13 16 6 -2 -4 -13 -3 -17 4 -13 6 4 14 1 17 -5 3 -7 3 -3 0 10 -5 21
-4 22 14 11 12 -7 18 -18 14 -24 -4 -7 -1 -7 9 1 16 12 28 12 49 0 12 -7 13
-6 3 5 -21 22 -15 30 11 14 21 -14 24 -14 29 0 4 8 12 15 19 14 10 0 10 -2 1
-6 -21 -8 -15 -22 7 -16 11 3 20 10 20 16 0 6 3 7 6 4 4 -4 2 -12 -4 -20 -8
-10 -7 -13 7 -13 10 0 17 5 14 11 -2 8 7 10 26 7 20 -3 28 -8 24 -16 -5 -8 -3
-8 8 0 8 6 22 10 32 9 9 -2 15 1 11 6 -3 5 -10 6 -16 3 -6 -4 -8 -3 -5 3 4 6
18 9 32 8 14 -2 27 1 31 6 3 5 10 6 16 3 6 -4 8 -1 6 7 -3 8 -11 13 -17 11 -7
-1 -10 2 -6 8 4 6 16 8 28 5 12 -4 17 -3 11 2 -6 4 -10 40 -10 80 1 39 -2 69
-5 67 -4 -2 -10 3 -13 12 -4 11 -2 15 7 11 8 -3 13 3 13 18 0 13 -4 21 -8 19
-5 -3 -6 -10 -3 -15 3 -5 -1 -6 -10 -2 -12 4 -13 8 -5 13 7 5 9 13 5 20 -5 9
-4 11 3 6 7 -4 12 -2 12 3 0 6 -5 11 -11 11 -6 0 -8 7 -5 16 3 8 1 25 -5 36
-9 16 -8 19 2 13 9 -6 11 -3 6 8 -4 10 -2 14 7 11 7 -3 13 2 13 11 0 9 -6 14
-13 11 -9 -3 -11 1 -7 11 4 10 2 14 -4 10 -5 -3 -10 0 -10 8 0 19 2 19 21 -1
15 -14 16 -12 10 21 -4 28 -3 35 7 30 8 -5 10 -4 5 4 -5 8 -12 9 -19 2 -9 -7
-12 -3 -12 14 0 12 5 21 11 18 6 -2 11 3 11 11 0 8 -4 13 -9 10 -9 -6 -11 27
-2 50 3 9 11 13 17 9 6 -3 7 -1 3 6 -6 9 -12 9 -24 -1 -15 -12 -15 -11 -1 12
16 26 19 104 5 117 -5 5 -6 2 -1 -7 8 -13 7 -13 -9 -1 -11 9 -14 17 -7 24 7 7
16 5 27 -4 16 -12 17 -12 9 1 -13 20 -13 33 0 43 6 5 4 7 -5 4 -8 -2 -14 -10
-12 -17 3 -11 0 -11 -12 0 -17 13 -22 25 -8 16 5 -3 9 14 9 37 1 23 3 61 5 85
3 32 0 45 -11 52 -10 6 -11 10 -3 10 8 0 11 10 7 29 -3 17 -1 33 5 36 5 3 10
11 10 16 0 6 -4 8 -8 5 -5 -3 -9 1 -9 9 0 8 4 12 9 9 4 -3 6 5 4 18 -2 13 -10
22 -17 20 -12 -3 -12 -1 -1 10 11 11 16 10 28 -6 8 -11 14 -16 14 -11 0 5 -10
20 -22 33 -13 14 -17 22 -10 18 16 -10 9 39 -10 62 -12 14 -10 14 12 2 l25
-13 -21 24 c-17 20 -23 41 -14 52 1 1 3 10 5 19 3 14 0 16 -15 8 -15 -8 -17
-6 -12 12 3 12 1 19 -4 16 -11 -7 -35 17 -27 26 10 9 -6 7 -27 -4 -13 -7 -21
-7 -26 2 -4 6 -3 8 3 5 5 -3 10 0 10 8 0 13 -3 13 -16 2 -9 -8 -23 -18 -31
-22 -13 -8 -13 -7 0 10 14 17 14 18 -7 7 -18 -10 -24 -9 -32 5 -6 11 -11 13
-11 5 0 -8 -5 -10 -12 -6 -8 5 -9 2 -5 -10 5 -12 3 -15 -6 -9 -16 10 -48 10
-69 1 -10 -5 -20 -3 -24 4 -4 6 -3 8 3 5 5 -3 10 1 10 9 0 10 -7 8 -25 -8 -14
-13 -22 -18 -19 -12 4 7 0 15 -9 18 -8 3 -13 2 -10 -3 3 -5 -1 -11 -9 -15 -8
-3 -17 0 -21 6 -4 6 -3 8 3 5 5 -3 10 1 10 9 0 11 -6 9 -23 -7 l-23 -22 4 24
c4 20 2 22 -8 8 -9 -12 -28 -14 -84 -12 -40 2 -75 -2 -78 -7 -3 -6 -12 -10
-18 -10 -8 0 -8 3 1 9 10 6 7 10 -12 13 -14 3 -23 2 -21 -2 3 -5 -2 -11 -11
-14 -12 -5 -14 -1 -9 17 5 16 4 18 -3 8 -6 -8 -17 -11 -26 -8 -8 3 -18 1 -22
-5 -4 -6 -3 -8 4 -4 6 3 13 2 16 -3 4 -5 -2 -8 -11 -6 -10 2 -22 4 -26 4 -5 1
-6 5 -3 9 3 5 -5 7 -17 6 -12 -1 -26 -3 -30 -3 -5 -1 -5 -7 -1 -13 5 -9 2 -9
-9 1 -14 11 -17 11 -17 0 0 -11 -2 -11 -9 1 -6 8 -7 18 -4 24 3 5 1 6 -6 2 -6
-4 -9 -11 -6 -16 3 -4 -2 -11 -11 -14 -8 -3 -12 -2 -9 4 9 14 -29 12 -44 -2
-11 -11 -12 -8 -6 12 4 18 3 21 -3 11 -6 -8 -17 -11 -26 -8 -8 3 -18 1 -22 -5
-4 -6 -3 -8 4 -4 6 3 13 2 16 -3 8 -13 -33 -2 -68 17 -5 3 -6 0 -3 -5 4 -6 0
-14 -9 -17 -11 -4 -15 -2 -11 8 4 10 1 13 -9 9 -7 -3 -14 -10 -14 -17 0 -6 -4
-5 -9 4 -6 8 -7 18 -4 24 4 5 1 6 -6 2 -7 -5 -10 -15 -6 -24 4 -12 1 -12 -16
4 -12 10 -19 14 -16 7 4 -6 3 -14 -3 -18 -5 -3 -10 -2 -10 4 0 10 -31 7 -53
-5 -9 -5 -9 -4 1 7 15 16 16 29 1 29 -5 0 -8 -4 -5 -9 3 -5 -7 -14 -24 -19
-18 -7 -32 -7 -35 -1 -9 13 -49 11 -64 -3 -11 -11 -12 -8 -6 12 4 18 3 21 -3
11 -6 -8 -17 -11 -26 -8 -8 3 -18 1 -22 -5 -4 -6 -3 -8 4 -4 6 3 13 2 16 -3 8
-13 -33 -2 -68 17 -5 3 -6 0 -3 -5 4 -6 0 -14 -9 -17 -11 -4 -15 -2 -11 8 4
10 1 13 -9 9 -7 -3 -14 -10 -14 -17 0 -6 -4 -5 -9 4 -6 8 -7 18 -4 24 4 5 1 6
-6 2 -7 -5 -10 -14 -8 -20 3 -7 -1 -13 -9 -13 -7 0 -11 4 -8 9 8 13 -31 9 -45
-4 -11 -11 -12 -8 -6 12 4 18 3 21 -3 11 -6 -8 -17 -11 -26 -8 -8 3 -18 1 -22
-5 -4 -6 -3 -8 4 -4 6 3 13 2 16 -3 8 -13 -33 -2 -68 17 -5 3 -6 0 -3 -5 4 -6
0 -14 -9 -17 -11 -4 -15 -2 -11 8 4 10 1 13 -9 9 -7 -3 -14 -10 -14 -17 0 -6
-4 -5 -9 4 -6 8 -7 18 -4 24 4 5 1 6 -6 2 -7 -5 -10 -15 -6 -24 4 -12 1 -12
-16 4 -12 10 -19 14 -16 7 4 -6 3 -14 -3 -18 -5 -3 -10 -2 -10 4 0 10 -31 8
-49 -4 -5 -3 -12 -1 -16 4 -4 7 -15 7 -31 1 -19 -7 -23 -7 -18 2 5 7 2 9 -8 5
-9 -3 -26 2 -39 11 -22 15 -23 15 -11 0 9 -11 10 -18 2 -23 -5 -3 -10 -2 -10
3 0 6 -7 13 -16 16 -8 3 -13 2 -10 -3 3 -5 -1 -11 -9 -15 -8 -3 -17 0 -21 6
-4 6 -3 8 3 5 5 -3 10 1 10 9 0 10 -7 8 -25 -8 -14 -13 -22 -18 -19 -12 4 7 0
15 -9 18 -8 3 -13 2 -10 -3 3 -5 -8 -8 -25 -6 -17 1 -35 8 -39 15 -6 9 -10 6
-15 -10 -6 -17 -9 -19 -16 -9 -6 11 -11 11 -20 2 -10 -10 -17 -9 -33 5 -11 9
-16 12 -13 6 9 -15 -20 -27 -29 -12 -4 7 -3 8 4 4 8 -5 10 -2 6 8 -5 13 -9 12
-23 -6 -14 -16 -20 -18 -26 -8 -5 8 -4 11 2 7 5 -3 10 1 10 9 0 11 -6 9 -23
-7 -16 -15 -24 -17 -29 -8 -5 8 -4 10 3 5 8 -5 10 -2 6 8 -5 13 -9 12 -23 -6
-14 -16 -20 -18 -26 -8 -5 8 -4 11 2 7 5 -3 10 0 10 8 0 10 -4 12 -12 5 -7 -5
-16 -6 -20 -2 -5 4 -5 2 -2 -4 4 -7 0 -15 -9 -18 -8 -3 -13 -2 -10 3 8 13 -66
12 -83 -2 -11 -9 -13 -9 -8 0 5 8 -1 11 -20 9 -16 -1 -40 1 -56 5 -15 4 -25 4
-22 -1 3 -4 -2 -11 -11 -14 -24 -9 -31 -7 -14 4 12 8 10 10 -10 10 -15 0 -32
-6 -39 -12 -11 -11 -12 -8 -6 12 4 18 3 21 -3 11 -6 -8 -17 -11 -26 -8 -8 3
-18 1 -22 -5 -4 -6 -3 -8 4 -4 6 3 13 2 16 -3 4 -5 -2 -8 -11 -6 -10 2 -22 4
-26 4 -5 1 -6 5 -3 9 3 5 -5 7 -17 6 -12 -1 -26 -3 -30 -3 -5 -1 -5 -7 -1 -13
6 -10 5 -10 -8 -1 -8 7 -18 10 -22 6 -3 -4 -15 -7 -25 -8 -14 -1 -18 4 -16 17
3 15 -3 27 -6 13z m2868 -734 c-1 -12 -6 -17 -16 -13 -10 4 -11 7 -3 10 7 2
10 8 6 13 -3 5 -1 9 5 9 5 0 9 -9 8 -19z m-797 -185 c0 -3 -4 -8 -10 -11 -5
-3 -10 -1 -10 4 0 6 5 11 10 11 6 0 10 -2 10 -4z m800 -320 c0 -3 -4 -8 -10
-11 -5 -3 -10 -1 -10 4 0 6 5 11 10 11 6 0 10 -2 10 -4z m-3 -43 c0 -7 -4 -13
-8 -13 -4 0 -9 6 -12 13 -3 8 0 14 7 14 7 0 13 -6 13 -14z m-3327 -59 c0 -8
-5 -12 -10 -9 -6 4 -8 11 -5 16 9 14 15 11 15 -7z m2704 -42 c3 -5 -1 -9 -9
-9 -8 0 -15 4 -15 9 0 4 4 8 9 8 6 0 12 -4 15 -8z m161 -2 c3 -6 -1 -7 -9 -4
-18 7 -21 14 -7 14 6 0 13 -4 16 -10z m160 0 c3 -6 -1 -7 -9 -4 -18 7 -21 14
-7 14 6 0 13 -4 16 -10z m200 0 c3 -6 -1 -7 -9 -4 -18 7 -21 14 -7 14 6 0 13
-4 16 -10z m-3359 -52 c4 -7 3 -8 -4 -4 -7 4 -12 2 -12 -5 0 -7 -3 -10 -6 -6
-6 5 3 27 11 27 2 0 7 -5 11 -12z m-283 -162 c4 -10 1 -13 -8 -9 -8 3 -12 9
-9 14 7 12 11 11 17 -5z m-550 -341 c-3 -9 -8 -14 -10 -11 -3 3 -2 9 2 15 9
16 15 13 8 -4z m-431 -267 c-7 -7 -12 -8 -12 -2 0 14 12 26 19 19 2 -3 -1 -11
-7 -17z m-105 -254 c-3 -3 -12 -4 -19 -1 -8 3 -5 6 6 6 11 1 17 -2 13 -5z
m788 -123 c3 -5 2 -12 -3 -15 -5 -3 -9 1 -9 9 0 17 3 19 12 6z m1972 -536 c0
-8 -4 -12 -9 -9 -5 3 -6 10 -3 15 9 13 12 11 12 -6z m1178 -175 c3 -6 -1 -7
-9 -4 -18 7 -21 14 -7 14 6 0 13 -4 16 -10z m-135 -164 c0 -2 -6 -9 -14 -15
-11 -9 -16 -9 -22 0 -4 8 -3 9 4 5 7 -4 12 -2 12 3 0 6 5 11 10 11 6 0 10 -2
10 -4z m-3103 -161 c0 -8 -4 -12 -9 -9 -5 3 -6 10 -3 15 9 13 12 11 12 -6z
m1378 -84 c-3 -6 4 -19 16 -29 12 -12 16 -22 10 -26 -11 -7 -44 48 -34 58 10
9 15 7 8 -3z m58 -56 c-3 -9 -8 -14 -10 -11 -3 3 -2 9 2 15 9 16 15 13 8 -4z
m-1436 -20 c0 -8 -4 -12 -9 -9 -5 3 -6 10 -3 15 9 13 12 11 12 -6z m1798 -4
c3 -5 1 -12 -5 -16 -5 -3 -10 1 -10 9 0 18 6 21 15 7z m685 5 c0 -2 -7 -7 -16
-10 -8 -3 -12 -2 -9 4 6 10 25 14 25 6z m-3056 -32 c3 -8 2 -12 -4 -9 -6 3
-10 10 -10 16 0 14 7 11 14 -7z m528 -348 c7 4 8 2 4 -5 -9 -13 -26 -5 -25 12
0 9 2 8 6 -1 2 -6 10 -9 15 -6z"/>
<path d="M6655 8361 c-3 -5 -2 -12 3 -15 5 -3 9 1 9 9 0 17 -3 19 -12 6z"/>
<path d="M7313 8355 c0 -8 4 -12 9 -9 5 3 6 10 3 15 -9 13 -12 11 -12 -6z"/>
<path d="M7677 8363 c-4 -3 -7 -11 -7 -17 0 -6 5 -5 12 2 6 6 9 14 7 17 -3 3
-9 2 -12 -2z"/>
<path d="M9445 8340 c-3 -5 -1 -10 4 -10 6 0 11 5 11 10 0 6 -2 10 -4 10 -3 0
-8 -4 -11 -10z"/>
<path d="M9483 8245 c0 -8 4 -12 9 -9 5 3 6 10 3 15 -9 13 -12 11 -12 -6z"/>
<path d="M9493 7990 c5 -29 13 -33 13 -5 0 14 -4 25 -8 25 -4 0 -7 -9 -5 -20z"/>
<path d="M6605 7881 c-3 -5 -2 -12 3 -15 5 -3 9 1 9 9 0 17 -3 19 -12 6z"/>
<path d="M9497 7829 c7 -7 15 -10 18 -7 3 3 -2 9 -12 12 -14 6 -15 5 -6 -5z"/>
<path d="M9493 7795 c0 -8 4 -12 9 -9 4 3 8 9 8 15 0 5 -4 9 -8 9 -5 0 -9 -7
-9 -15z"/>
<path d="M5755 7699 c-4 -6 -5 -12 -2 -15 2 -3 7 2 10 11 7 17 1 20 -8 4z"/>
<path d="M7465 7700 c-4 -6 -11 -7 -17 -4 -7 4 -8 2 -4 -5 6 -9 11 -9 22 0 13
11 18 6 15 -14 -1 -5 3 -6 9 -2 8 5 7 11 -1 21 -14 17 -16 17 -24 4z"/>
<path d="M5386 7692 c-2 -4 4 -8 14 -8 10 0 16 4 14 8 -3 4 -9 8 -14 8 -5 0
-11 -4 -14 -8z"/>
<path d="M8226 7688 c3 -5 10 -6 15 -3 13 9 11 12 -6 12 -8 0 -12 -4 -9 -9z"/>
<path d="M8465 7691 c-3 -5 -2 -12 3 -15 5 -3 9 1 9 9 0 17 -3 19 -12 6z"/>
<path d="M4076 7678 c3 -4 11 -5 19 -1 21 7 19 12 -4 10 -11 0 -18 -5 -15 -9z"/>
<path d="M7646 7678 c3 -5 10 -6 15 -3 13 9 11 12 -6 12 -8 0 -12 -4 -9 -9z"/>
<path d="M7920 7686 c0 -2 7 -7 16 -10 8 -3 12 -2 9 4 -6 10 -25 14 -25 6z"/>
<path d="M8040 7679 c0 -5 5 -7 10 -4 6 3 10 8 10 11 0 2 -4 4 -10 4 -5 0 -10
-5 -10 -11z"/>
<path d="M8405 7680 c3 -5 8 -10 11 -10 2 0 4 5 4 10 0 6 -5 10 -11 10 -5 0
-7 -4 -4 -10z"/>
<path d="M6599 7593 c-13 -16 -12 -17 4 -4 9 7 17 15 17 17 0 8 -8 3 -21 -13z"/>
<path d="M5365 7580 c-3 -5 -2 -10 4 -10 5 0 13 5 16 10 3 6 2 10 -4 10 -5 0
-13 -4 -16 -10z"/>
<path d="M4640 7320 c-9 -6 -10 -10 -3 -10 6 0 15 5 18 10 8 12 4 12 -15 0z"/>
<path d="M9492 7318 c2 -6 10 -13 16 -14 7 -1 8 0 2 3 -5 2 -8 9 -4 14 3 5 0
9 -6 9 -7 0 -10 -5 -8 -12z"/>
<path d="M4639 7172 c9 -7 10 -11 2 -15 -7 -4 -8 -5 0 -4 15 3 13 21 -3 25
-10 3 -10 2 1 -6z"/>
<path d="M6192 7058 c2 -5 8 -9 13 -9 5 0 11 4 13 9 1 5 -4 9 -13 9 -9 0 -14
-4 -13 -9z"/>
<path d="M9475 6980 c-3 -5 -1 -10 4 -10 6 0 11 5 11 10 0 6 -2 10 -4 10 -3 0
-8 -4 -11 -10z"/>
<path d="M9451 6964 c0 -11 3 -14 6 -6 3 7 2 16 -1 19 -3 4 -6 -2 -5 -13z"/>
<path d="M4620 6816 c0 -2 9 -6 20 -9 11 -3 18 -1 14 4 -5 9 -34 13 -34 5z"/>
<path d="M5055 6789 c-4 -6 -5 -12 -2 -15 2 -3 7 2 10 11 7 17 1 20 -8 4z"/>
<path d="M5015 6769 c-4 -6 -4 -13 -1 -16 3 -4 6 -1 6 6 0 7 5 9 12 5 7 -4 8
-3 4 4 -9 15 -13 15 -21 1z"/>
<path d="M5604 6702 c3 -5 0 -13 -6 -15 -9 -4 -10 -6 -1 -6 17 -1 25 16 12 25
-7 4 -9 3 -5 -4z"/>
<path d="M5490 6640 c0 -5 5 -10 11 -10 5 0 7 5 4 10 -3 6 -8 10 -11 10 -2 0
-4 -4 -4 -10z"/>
<path d="M5475 6610 c4 -6 11 -8 16 -5 14 9 11 15 -7 15 -8 0 -12 -5 -9 -10z"/>
<path d="M5283 6495 c0 -8 4 -12 9 -9 5 3 6 10 3 15 -9 13 -12 11 -12 -6z"/>
<path d="M5018 6343 c6 -2 9 -10 6 -15 -4 -7 -2 -8 5 -4 13 9 5 26 -12 25 -9
0 -8 -2 1 -6z"/>
<path d="M5727 5939 c7 -7 15 -10 18 -7 3 3 -2 9 -12 12 -14 6 -15 5 -6 -5z"/>
<path d="M4641 5813 c12 -15 12 -16 -6 -9 -15 5 -17 4 -8 -5 6 -6 16 -8 22 -5
12 8 3 36 -11 36 -6 0 -4 -8 3 -17z"/>
<path d="M4636 5691 c-4 -5 -2 -12 3 -15 5 -4 12 -2 15 3 4 5 2 12 -3 15 -5 4
-12 2 -15 -3z"/>
<path d="M4634 5413 c15 -4 16 -7 5 -15 -11 -7 -11 -9 -1 -6 20 5 16 23 -5 25
-15 2 -15 1 1 -4z"/>
<path d="M8633 5273 c-7 -2 -13 -9 -13 -15 0 -7 5 -7 13 1 8 6 18 7 22 3 5 -4
5 -1 1 6 -4 6 -8 12 -9 11 -1 0 -8 -3 -14 -6z"/>
<path d="M4639 5012 c9 -7 10 -11 2 -15 -7 -4 -8 -5 0 -3 15 2 13 20 -3 24
-10 3 -10 2 1 -6z"/>
<path d="M8502 4945 c-14 -30 -12 -31 10 -5 10 10 14 22 9 24 -4 3 -13 -6 -19
-19z"/>
<path d="M4620 4896 c0 -2 9 -6 20 -9 11 -3 18 -1 14 4 -5 9 -34 13 -34 5z"/>
<path d="M8270 4675 c-13 -14 -19 -25 -14 -25 8 1 50 50 41 50 -2 0 -14 -11
-27 -25z"/>
<path d="M4630 4659 c0 -5 5 -7 10 -4 6 3 10 8 10 11 0 2 -4 4 -10 4 -5 0 -10
-5 -10 -11z"/>
<path d="M8185 4589 c-9 -14 -2 -20 14 -10 8 6 9 11 3 15 -6 3 -14 1 -17 -5z"/>
<path d="M6971 4564 c0 -11 3 -14 6 -6 3 7 2 16 -1 19 -3 4 -6 -2 -5 -13z"/>
<path d="M7066 4571 c-4 -5 -2 -12 3 -15 5 -4 12 -2 15 3 4 5 2 12 -3 15 -5 4
-12 2 -15 -3z"/>
<path d="M7235 4569 c-4 -5 -4 -13 -1 -16 3 -4 6 0 6 8 0 11 2 11 10 -1 6 -9
10 -10 10 -3 0 17 -17 25 -25 12z"/>
<path d="M7405 4570 c-4 -6 -11 -7 -17 -4 -7 4 -8 2 -4 -5 6 -9 11 -9 22 0 14
11 18 19 10 19 -3 0 -8 -5 -11 -10z"/>
<path d="M7885 4570 c-3 -6 -11 -7 -17 -4 -7 4 -8 2 -4 -5 6 -9 11 -9 21 -1 8
7 15 7 19 1 4 -5 15 -9 26 -8 10 1 16 5 14 9 -3 5 -10 6 -15 2 -5 -3 -16 -1
-24 6 -9 8 -15 8 -20 0z"/>
<path d="M7270 4560 c0 -5 5 -10 11 -10 5 0 7 5 4 10 -3 6 -8 10 -11 10 -2 0
-4 -4 -4 -10z"/>
<path d="M7347 4559 c7 -7 15 -10 18 -7 3 3 -2 9 -12 12 -14 6 -15 5 -6 -5z"/>
<path d="M7454 4562 c4 -3 14 -7 22 -8 9 -1 13 0 10 4 -4 3 -14 7 -22 8 -9 1
-13 0 -10 -4z"/>
<path d="M7530 4560 c0 -5 5 -10 11 -10 5 0 7 5 4 10 -3 6 -8 10 -11 10 -2 0
-4 -4 -4 -10z"/>
<path d="M7694 4562 c4 -3 14 -7 22 -8 9 -1 13 0 10 4 -4 3 -14 7 -22 8 -9 1
-13 0 -10 -4z"/>
<path d="M8010 4560 c0 -5 5 -10 11 -10 5 0 7 5 4 10 -3 6 -8 10 -11 10 -2 0
-4 -4 -4 -10z"/>
<path d="M8066 4559 c4 -8 30 -6 38 2 3 3 -5 5 -19 5 -13 0 -22 -3 -19 -7z"/>
</g>
</svg>
